<svg width="16" height="16" viewBox="0 0 16 16" fill="none" xmlns="http://www.w3.org/2000/svg">
<path d="M8 15C6.61553 15 5.26216 14.5895 4.11101 13.8203C2.95987 13.0511 2.06266 11.9579 1.53285 10.6788C1.00303 9.3997 0.86441 7.99224 1.13451 6.63437C1.4046 5.2765 2.07129 4.02922 3.05026 3.05026C4.02922 2.07129 5.2765 1.4046 6.63437 1.13451C7.99224 0.86441 9.3997 1.00303 10.6788 1.53285C11.9579 2.06266 13.0511 2.95987 13.8203 4.11101C14.5895 5.26216 15 6.61553 15 8C14.9979 9.85587 14.2597 11.6351 12.9474 12.9474C11.6351 14.2597 9.85587 14.9979 8 15ZM5.078 7.378C5.05479 7.378 5.03203 7.38447 5.01229 7.39667C4.99254 7.40888 4.97658 7.42634 4.9662 7.4471C4.95582 7.46786 4.95142 7.49111 4.95351 7.51423C4.95559 7.53735 4.96407 7.55943 4.978 7.578L6.926 10.278C6.97241 10.3416 7.03319 10.3934 7.10339 10.4291C7.1736 10.4648 7.25124 10.4834 7.33 10.4834C7.40876 10.4834 7.48641 10.4648 7.55661 10.4291C7.62682 10.3934 7.6876 10.3416 7.734 10.278L11.024 5.716C11.0376 5.69734 11.0457 5.67531 11.0476 5.65232C11.0495 5.62933 11.045 5.60627 11.0347 5.58564C11.0244 5.56501 11.0086 5.54761 10.9891 5.53533C10.9696 5.52305 10.9471 5.51636 10.924 5.516H10.189C10.1107 5.51693 10.0337 5.53623 9.96423 5.57236C9.89475 5.60849 9.83473 5.66043 9.789 5.724L7.328 9.13L6.215 7.586C6.16878 7.52175 6.10796 7.46939 6.03755 7.43323C5.96714 7.39707 5.88915 7.37814 5.81 7.378H5.078Z" fill="#52C41A"/>
</svg>
