<svg width="16" height="16" viewBox="0 0 16 16" fill="none" xmlns="http://www.w3.org/2000/svg">
<path d="M8.80993 8.00027L12.9109 3.10627C12.9253 3.0878 12.9341 3.06566 12.9364 3.0424C12.9387 3.01914 12.9343 2.9957 12.9239 2.9748C12.9134 2.95389 12.8973 2.93636 12.8773 2.92424C12.8573 2.91211 12.8343 2.90588 12.8109 2.90627H11.5689C11.5324 2.90649 11.4964 2.91455 11.4633 2.92991C11.4301 2.94526 11.4007 2.96755 11.3769 2.99527L7.99393 7.02827L4.61093 2.99527C4.58738 2.96729 4.55799 2.94483 4.52481 2.92945C4.49164 2.91407 4.4555 2.90616 4.41893 2.90627H3.17193C3.14856 2.90588 3.12556 2.91211 3.10557 2.92424C3.08559 2.93636 3.06944 2.95389 3.05899 2.9748C3.04854 2.9957 3.04421 3.01914 3.0465 3.0424C3.04878 3.06566 3.0576 3.0878 3.07193 3.10627L7.17193 7.99527L3.07693 12.8893C3.0626 12.9077 3.05378 12.9299 3.0515 12.9531C3.04921 12.9764 3.05354 12.9998 3.06399 13.0207C3.07444 13.0416 3.09059 13.0592 3.11057 13.0713C3.13056 13.0834 3.15356 13.0896 3.17693 13.0893H4.41893C4.45544 13.089 4.49148 13.081 4.5246 13.0656C4.55772 13.0503 4.58717 13.028 4.61093 13.0003L7.99393 8.97227L11.3769 13.0063C11.4005 13.0342 11.4299 13.0567 11.4631 13.0721C11.4962 13.0875 11.5324 13.0954 11.5689 13.0953H12.8159C12.8393 13.0956 12.8623 13.0894 12.8823 13.0773C12.9023 13.0652 12.9184 13.0476 12.9289 13.0267C12.9393 13.0058 12.9437 12.9824 12.9414 12.9591C12.9391 12.9359 12.9303 12.9137 12.9159 12.8953L8.80993 8.00027Z" fill="#666666"/>
</svg>
