<svg width="16" height="16" viewBox="0 0 16 16" fill="none" xmlns="http://www.w3.org/2000/svg">
  <path
      d="M8.80993 8.00002L12.9109 3.10602C12.9253 3.08756 12.9341 3.06542 12.9364 3.04215C12.9387 3.01889 12.9343 2.99546 12.9239 2.97455C12.9134 2.95365 12.8973 2.93612 12.8773 2.92399C12.8573 2.91187 12.8343 2.90564 12.8109 2.90602H11.5689C11.5324 2.90625 11.4964 2.91431 11.4633 2.92966C11.4301 2.94502 11.4007 2.96731 11.3769 2.99502L7.99393 7.02802L4.61093 2.99502C4.58738 2.96705 4.55799 2.94458 4.52481 2.9292C4.49164 2.91383 4.4555 2.90591 4.41893 2.90602H3.17193C3.14856 2.90564 3.12556 2.91187 3.10557 2.92399C3.08559 2.93612 3.06944 2.95365 3.05899 2.97455C3.04854 2.99546 3.04421 3.01889 3.0465 3.04215C3.04878 3.06542 3.0576 3.08756 3.07193 3.10602L7.17193 7.99502L3.07693 12.889C3.0626 12.9075 3.05378 12.9296 3.0515 12.9529C3.04921 12.9762 3.05354 12.9996 3.06399 13.0205C3.07444 13.0414 3.09059 13.0589 3.11057 13.0711C3.13056 13.0832 3.15356 13.0894 3.17693 13.089H4.41893C4.45544 13.0888 4.49148 13.0807 4.5246 13.0654C4.55772 13.05 4.58717 13.0277 4.61093 13L7.99393 8.97202L11.3769 13.006C11.4005 13.034 11.4299 13.0565 11.4631 13.0718C11.4962 13.0872 11.5324 13.0951 11.5689 13.095H12.8159C12.8393 13.0954 12.8623 13.0892 12.8823 13.0771C12.9023 13.0649 12.9184 13.0474 12.9289 13.0265C12.9393 13.0056 12.9437 12.9822 12.9414 12.9589C12.9391 12.9356 12.9303 12.9135 12.9159 12.895L8.80993 8.00002Z"
      fill="#888888"/>
</svg>
